<svg 
 xmlns="http://www.w3.org/2000/svg"
 xmlns:xlink="http://www.w3.org/1999/xlink"
 width="15px" height="15px">
<path fill-rule="evenodd"  fill="rgb(255, 255, 255)"
 d="M7.500,-0.000 C3.358,-0.000 -0.000,3.358 -0.000,7.500 C-0.000,11.642 3.358,15.000 7.500,15.000 C11.642,15.000 15.000,11.642 15.000,7.500 C15.000,3.358 11.642,-0.000 7.500,-0.000 ZM8.000,12.000 L7.000,12.000 L7.000,11.000 L8.000,11.000 L8.000,12.000 ZM8.000,8.950 L8.000,10.000 L7.000,10.000 L7.000,8.000 L7.500,8.000 C8.327,8.000 9.000,7.327 9.000,6.500 C9.000,5.673 8.327,5.000 7.500,5.000 C6.673,5.000 6.000,5.673 6.000,6.500 L5.000,6.500 C5.000,5.122 6.122,4.000 7.500,4.000 C8.878,4.000 10.000,5.122 10.000,6.500 C10.000,7.707 9.140,8.717 8.000,8.950 Z"/>
</svg>