<svg 
 xmlns="http://www.w3.org/2000/svg"
 xmlns:xlink="http://www.w3.org/1999/xlink"
 width="18px" height="18px">
<path fill-rule="evenodd"  fill="rgb(48, 99, 245)"
 d="M17.713,16.509 L14.217,13.008 C15.170,11.749 15.742,10.186 15.742,8.489 C15.742,4.348 12.378,0.980 8.244,0.980 C4.108,0.980 0.744,4.348 0.744,8.489 C0.744,12.629 4.108,15.997 8.244,15.997 C9.951,15.997 11.522,15.416 12.784,14.450 L16.277,17.947 L17.713,16.509 ZM8.244,13.963 C5.228,13.963 2.775,11.507 2.775,8.489 C2.775,5.470 5.228,3.014 8.244,3.014 C11.258,3.014 13.711,5.470 13.711,8.489 C13.711,11.507 11.258,13.963 8.244,13.963 Z"/>
</svg>